<?xml version="1.0" standalone="no"?>
<svg version="1.0" xmlns="http://www.w3.org/2000/svg"
 width="32" height="32" viewBox="0 0 180.000000 180.000000"
 preserveAspectRatio="xMidYMid meet">

<g transform="translate(0.000000,180.000000) scale(0.100000,-0.100000)"
fill="currentColor" stroke="none">
<path d="M802 1484 c-124 -27 -268 -118 -308 -196 -30 -58 2 -62 101 -15 127
61 170 72 290 72 99 0 114 -3 154 -25 62 -34 85 -77 84 -156 0 -39 -7 -76 -19
-101 l-19 -38 -87 -5 c-97 -6 -128 -23 -128 -70 0 -46 30 -62 127 -69 l88 -6
24 -44 c35 -64 42 -202 12 -263 -11 -24 -34 -54 -49 -65 -66 -49 -175 -65
-281 -42 l-51 11 5 36 c2 20 7 78 10 127 3 50 24 180 46 289 47 234 50 339 12
344 -30 4 -84 -47 -121 -116 -64 -120 -131 -365 -148 -539 -7 -79 -6 -78 -73
-62 -35 8 -47 7 -59 -4 -12 -13 -12 -19 3 -51 34 -72 184 -144 375 -181 255
-50 507 38 584 204 32 71 29 199 -7 274 -26 52 -69 99 -127 139 -23 16 -24 18
-7 29 88 53 130 130 130 233 -1 160 -99 257 -292 292 -95 17 -187 16 -269 -2z"/>
</g>
</svg>
